<svg width="28" height="28" viewBox="0 0 28 28" fill="none" xmlns="http://www.w3.org/2000/svg">
<path d="M14.2259 10.6667H16.8926V6.66667H20.8926V4H16.8926V0H14.2259V4H10.2259V6.66667H14.2259V10.6667ZM8.89258 22.6667C7.42591 22.6667 6.23925 23.8667 6.23925 25.3333C6.23925 26.8 7.42591 28 8.89258 28C10.3592 28 11.5592 26.8 11.5592 25.3333C11.5592 23.8667 10.3592 22.6667 8.89258 22.6667ZM22.2259 22.6667C20.7592 22.6667 19.5726 23.8667 19.5726 25.3333C19.5726 26.8 20.7592 28 22.2259 28C23.6926 28 24.8926 26.8 24.8926 25.3333C24.8926 23.8667 23.6926 22.6667 22.2259 22.6667ZM10.3592 16H20.2926C21.2926 16 22.1726 15.4533 22.6259 14.6267L27.7726 5.28L25.4526 4L20.2926 13.3333H10.9326L5.25258 1.33333H0.892578V4H3.55924L8.35924 14.12L6.55925 17.3733C5.58591 19.16 6.86591 21.3333 8.89258 21.3333H24.8926V18.6667H8.89258L10.3592 16Z" fill="white"/>
</svg>
