<svg width="28" height="28" viewBox="0 0 28 28" fill="none" xmlns="http://www.w3.org/2000/svg">
<path d="M14.0003 0.666748C6.64033 0.666748 0.666992 6.64008 0.666992 14.0001C0.666992 21.3601 6.64033 27.3334 14.0003 27.3334C21.3603 27.3334 27.3337 21.3601 27.3337 14.0001C27.3337 6.64008 21.3603 0.666748 14.0003 0.666748ZM14.0003 24.6667C8.12033 24.6667 3.33366 19.8801 3.33366 14.0001C3.33366 8.12008 8.12033 3.33341 14.0003 3.33341C19.8803 3.33341 24.667 8.12008 24.667 14.0001C24.667 19.8801 19.8803 24.6667 14.0003 24.6667ZM14.4137 12.8534C12.0537 12.2534 11.2937 11.6001 11.2937 10.6267C11.2937 9.50675 12.347 8.72008 14.0937 8.72008C15.9337 8.72008 16.627 9.60008 16.6803 10.9067H18.9603C18.8937 9.12008 17.8003 7.48008 15.6403 6.94675V4.66675H12.5337V6.92008C10.5203 7.34675 8.90699 8.65341 8.90699 10.6667C8.90699 13.0534 10.8937 14.2534 13.787 14.9467C16.387 15.5601 16.907 16.4801 16.907 17.4401C16.907 18.1467 16.387 19.2934 14.107 19.2934C11.9737 19.2934 11.1337 18.3334 11.0137 17.1067H8.72033C8.85366 19.3734 10.5337 20.6534 12.5337 21.0667V23.3334H15.6537V21.1067C17.6803 20.7201 19.2803 19.5601 19.2937 17.4134C19.2803 14.4801 16.7603 13.4667 14.4137 12.8534Z" fill="white"/>
</svg>
