<svg width="21" height="21" viewBox="0 0 21 21" fill="none" xmlns="http://www.w3.org/2000/svg">
<path fill-rule="evenodd" clip-rule="evenodd" d="M11.6695 0.0214844C9.29028 0.0214844 7.34837 1.89542 7.23934 4.24772L7.23452 4.45648V5.38948C7.23452 5.8037 7.5703 6.13948 7.98452 6.13948C8.36421 6.13948 8.67801 5.85733 8.72767 5.49125L8.73452 5.38948V4.45648C8.73452 2.89358 9.95653 1.61575 11.4971 1.52647L11.6695 1.52148H16.5445C18.1066 1.52148 19.3843 2.74362 19.4735 4.28406L19.4785 4.45648V15.5865C19.4785 17.1493 18.2566 18.4272 16.7169 18.5165L16.5445 18.5215H11.6595C10.1022 18.5215 8.82847 17.3039 8.73948 15.7693L8.73452 15.5975V14.6545C8.73452 14.2403 8.39873 13.9045 7.98452 13.9045C7.60482 13.9045 7.29103 14.1866 7.24136 14.5527L7.23452 14.6545V15.5975C7.23452 17.9687 9.10132 19.9046 11.4452 20.0164L11.6595 20.0215H16.5445C18.923 20.0215 20.8647 18.1474 20.9737 15.7952L20.9785 15.5865V4.45648C20.9785 2.07743 19.1048 0.135347 16.7532 0.0263125L16.5445 0.0214844H11.6695ZM0.672306 9.47968C0.52977 9.6162 0.441015 9.80843 0.441015 10.0214C0.441015 10.2365 0.531559 10.4304 0.676613 10.5672L3.59008 13.4687C3.88357 13.761 4.35844 13.76 4.65073 13.4665C4.91645 13.1997 4.9398 12.783 4.72135 12.4898L4.64856 12.4059L3.00849 10.7714H13.232C13.6462 10.7714 13.982 10.4356 13.982 10.0214C13.982 9.64169 13.6999 9.32789 13.3338 9.27823L13.232 9.27138H3.00681L4.64846 7.63779C4.91532 7.37212 4.94046 6.95551 4.72326 6.66142L4.65083 6.57714C4.38515 6.31028 3.96854 6.28514 3.67445 6.50234L3.59017 6.57478L0.672306 9.47968Z" fill="#C80000"/>
</svg>
