<svg width="143" height="35" viewBox="0 0 143 35" fill="none" xmlns="http://www.w3.org/2000/svg">
<circle cx="12" cy="17.5" r="11.5" stroke="#0D3313"/>
<path fill-rule="evenodd" clip-rule="evenodd" d="M12.0017 8.24292C12.0826 8.24292 12.1633 8.24396 12.2437 8.24602C7.85426 8.37435 4.33057 12.4694 4.33057 17.5024C4.33057 22.5354 7.85426 26.6305 12.2437 26.7588C12.1633 26.7609 12.0826 26.7619 12.0017 26.7619C6.8878 26.7619 2.74219 22.6163 2.74219 17.5024C2.74219 12.3885 6.8878 8.24292 12.0017 8.24292ZM20.5815 17.5024C20.5815 13.7078 18.5785 10.4463 15.7116 9.01608C18.9786 10.4463 21.2612 13.7078 21.2612 17.5024C21.2612 21.297 18.9786 24.5585 15.7116 25.9887C18.5785 24.5585 20.5815 21.297 20.5815 17.5024ZM18.7548 17.5024C18.7548 20.4544 16.3618 22.8474 13.4099 22.8474C10.4579 22.8474 8.06493 20.4544 8.06493 17.5024C8.06493 14.5505 10.4579 12.1575 13.4099 12.1575C16.3618 12.1575 18.7548 14.5505 18.7548 17.5024ZM18.442 17.5024C18.442 20.2191 16.29 22.4213 13.6354 22.4213C10.9809 22.4213 8.82893 20.2191 8.82893 17.5024C8.82893 14.7858 10.9809 12.5835 13.6354 12.5835C16.29 12.5835 18.442 14.7858 18.442 17.5024Z" fill="#0D3313"/>
<path d="M39.16 23.74C37.8933 23.74 36.7867 23.4867 35.84 22.98C34.8933 22.46 34.1533 21.74 33.62 20.82C33.1 19.8867 32.84 18.8133 32.84 17.6C32.84 16.56 33.02 15.6067 33.38 14.74C33.7533 13.86 34.26 13.1 34.9 12.46C35.5533 11.8067 36.32 11.3 37.2 10.94C38.0933 10.58 39.06 10.4 40.1 10.4C40.8333 10.4 41.5333 10.4867 42.2 10.66C42.8667 10.82 43.4533 11.06 43.96 11.38L43.56 14.56C43.2533 14.56 43.0067 14.5267 42.82 14.46C42.6333 14.3933 42.5267 14.3067 42.5 14.2L42.28 12.2L42.76 12.88C42.4 12.56 41.94 12.3133 41.38 12.14C40.82 11.9533 40.2333 11.86 39.62 11.86C38.7933 11.86 38.0733 12.06 37.46 12.46C36.86 12.86 36.4 13.44 36.08 14.2C35.76 14.96 35.6 15.8667 35.6 16.92C35.6 18.0133 35.7667 18.9667 36.1 19.78C36.4333 20.58 36.8933 21.2 37.48 21.64C38.08 22.08 38.7867 22.3 39.6 22.3C40.2533 22.3 40.8667 22.1667 41.44 21.9C42.0133 21.6333 42.4533 21.28 42.76 20.84L42.28 21.82L42.58 18.84C42.98 18.84 43.26 18.8667 43.42 18.92C43.5933 18.96 43.7133 19.0333 43.78 19.14L43.94 22.1C43.4467 22.6067 42.76 23.0067 41.88 23.3C41.0133 23.5933 40.1067 23.74 39.16 23.74ZM45.8617 23.5C45.8617 22.8867 45.9684 22.5467 46.1817 22.48L47.3217 22.02L47.1017 22.36V10.08L47.3217 10.38L46.1617 10.08C45.9617 10.0267 45.8617 9.7 45.8617 9.1C46.4884 8.99333 46.9751 8.92 47.3217 8.88C47.6817 8.84 47.9751 8.82 48.2017 8.82C48.6551 8.82 48.9817 8.92 49.1817 9.12C49.3817 9.32 49.4817 9.64 49.4817 10.08V16.34L49.3417 16.16H49.6217C50.1951 15.5733 50.8217 15.1133 51.5017 14.78C52.1951 14.4333 52.8484 14.26 53.4617 14.26C54.9951 14.26 55.7617 15.3 55.7617 17.38V22.26L55.5417 21.98L57.0017 22.4C57.0017 22.6533 56.9751 22.86 56.9217 23.02C56.8817 23.1667 56.7884 23.3267 56.6417 23.5H52.2417C52.2417 22.8867 52.3484 22.5467 52.5617 22.48L53.4417 22.16L53.2417 22.5V17.68C53.2417 16.5467 52.8217 15.98 51.9817 15.98C51.6351 15.98 51.3017 16.0467 50.9817 16.18C50.6751 16.3133 50.3951 16.48 50.1417 16.68C49.9017 16.8667 49.7084 17.0467 49.5617 17.22L49.6217 16.96V22.38L49.3817 22.1L50.6017 22.4C50.6017 22.6533 50.5751 22.86 50.5217 23.02C50.4817 23.1667 50.3884 23.3267 50.2417 23.5H45.8617ZM62.6864 23.74C61.8064 23.74 61.0331 23.5533 60.3664 23.18C59.6997 22.8067 59.1797 22.2867 58.8064 21.62C58.4464 20.9533 58.2664 20.18 58.2664 19.3C58.2664 18.34 58.4797 17.48 58.9064 16.72C59.3331 15.96 59.9064 15.36 60.6264 14.92C61.3597 14.48 62.1731 14.26 63.0664 14.26C63.8397 14.26 64.5131 14.4267 65.0864 14.76C65.6597 15.08 66.0997 15.5333 66.4064 16.12C66.7264 16.6933 66.8864 17.3733 66.8864 18.16C66.8864 18.4933 66.8397 18.7133 66.7464 18.82C66.6531 18.9133 66.5064 18.96 66.3064 18.96H60.0664V18.02L64.7864 17.9L64.5664 18.2C64.5797 17.56 64.5197 17.02 64.3864 16.58C64.2531 16.1267 64.0597 15.7867 63.8064 15.56C63.5531 15.32 63.2464 15.2 62.8864 15.2C62.3264 15.2 61.8664 15.5 61.5064 16.1C61.1464 16.6867 60.9664 17.5067 60.9664 18.56C60.9664 19.3467 61.0797 20.0267 61.3064 20.6C61.5331 21.1733 61.8664 21.6133 62.3064 21.92C62.7464 22.2133 63.2864 22.36 63.9264 22.36C64.4197 22.36 64.8864 22.2533 65.3264 22.04C65.7664 21.8267 66.1931 21.52 66.6064 21.12L66.9264 21.84C66.6197 22.2133 66.2397 22.5467 65.7864 22.84C65.3331 23.12 64.8397 23.34 64.3064 23.5C63.7864 23.66 63.2464 23.74 62.6864 23.74ZM72.8241 23.74C71.9441 23.74 71.1641 23.56 70.4841 23.2C69.8041 22.8267 69.2774 22.3067 68.9041 21.64C68.5441 20.9733 68.3641 20.1933 68.3641 19.3C68.3641 18.3133 68.5774 17.4467 69.0041 16.7C69.4307 15.94 70.0107 15.3467 70.7441 14.92C71.4907 14.48 72.3374 14.26 73.2841 14.26C73.9641 14.26 74.5774 14.3667 75.1241 14.58C75.6841 14.7933 76.1241 15.0867 76.4441 15.46C76.7641 15.82 76.9241 16.22 76.9241 16.66C76.9241 16.98 76.8174 17.2333 76.6041 17.42C76.3907 17.6067 76.0907 17.7 75.7041 17.7C75.5441 17.7 75.3841 17.68 75.2241 17.64C75.0774 17.5867 74.9307 17.52 74.7841 17.44C74.7841 16.7067 74.6441 16.1533 74.3641 15.78C74.0974 15.3933 73.6974 15.2 73.1641 15.2C72.4841 15.2 71.9574 15.5 71.5841 16.1C71.2241 16.7 71.0441 17.5533 71.0441 18.66C71.0441 19.9 71.2774 20.8267 71.7441 21.44C72.2107 22.0533 72.9174 22.36 73.8641 22.36C74.3574 22.36 74.8374 22.2733 75.3041 22.1C75.7707 21.9133 76.2374 21.6333 76.7041 21.26L77.0241 21.98C76.7174 22.3267 76.3374 22.6333 75.8841 22.9C75.4441 23.1667 74.9574 23.3733 74.4241 23.52C73.9041 23.6667 73.3707 23.74 72.8241 23.74ZM78.1859 23.5C78.1859 23.18 78.2126 22.94 78.2659 22.78C78.3193 22.62 78.3993 22.52 78.5059 22.48L79.7659 22.02L79.5459 22.32V10.08L79.7859 10.38L78.4859 10.08C78.2859 10.0267 78.1859 9.7 78.1859 9.1C78.6926 9.02 79.1593 8.95333 79.5859 8.9C80.0259 8.84667 80.4793 8.82 80.9459 8.82C81.6926 8.82 82.0659 9.24667 82.0659 10.1V22.4L81.7859 22.1L83.0659 22.4C83.0659 22.6533 83.0393 22.86 82.9859 23.02C82.9326 23.1667 82.8326 23.3267 82.6859 23.5H78.1859ZM87.3059 23.74C86.8393 23.74 86.3526 23.5867 85.8459 23.28C85.3393 22.9733 84.7793 22.4467 84.1659 21.7C83.5526 20.9533 82.8393 19.92 82.0259 18.6L85.2059 15.78L85.0459 16.1L83.8259 15.74C83.8259 15.3267 83.9326 14.96 84.1459 14.64H88.4659C88.4659 15 88.4459 15.2533 88.4059 15.4C88.3659 15.5467 88.2793 15.64 88.1459 15.68L86.1259 16.38L87.4659 15.54L83.8659 18.78L84.1859 17.9C84.6259 18.5533 85.1126 19.18 85.6459 19.78C86.1793 20.3667 86.7259 20.8933 87.2859 21.36C87.8593 21.8133 88.4126 22.18 88.9459 22.46C88.9459 22.8467 88.7926 23.16 88.4859 23.4C88.1793 23.6267 87.7859 23.74 87.3059 23.74ZM93.5639 23.5C93.5639 23.2067 93.5906 22.9733 93.6439 22.8C93.7106 22.6267 93.7906 22.52 93.8839 22.48L95.2839 21.98L94.5639 22.72L98.8639 10.94C98.9172 10.7933 99.0306 10.68 99.2039 10.6C99.3772 10.52 99.5639 10.4667 99.7639 10.44C99.9639 10.4133 100.131 10.4 100.264 10.4C100.411 10.4 100.557 10.4067 100.704 10.42C100.851 10.4333 100.997 10.46 101.144 10.5L105.844 22.64L105.064 21.98L106.964 22.4C106.964 22.6133 106.937 22.8067 106.884 22.98C106.831 23.14 106.717 23.3133 106.544 23.5H101.564C101.564 23.2067 101.591 22.9733 101.644 22.8C101.711 22.6267 101.791 22.52 101.884 22.48L103.304 22.04L103.144 22.62L99.1239 12.26L99.8839 12.24L96.0639 22.68L95.9239 21.92L98.0439 22.4C98.0439 22.6133 98.0172 22.8067 97.9639 22.98C97.9106 23.14 97.7972 23.3133 97.6239 23.5H93.5639ZM96.7839 19.46L97.0639 18.18H102.044L102.344 19.46H96.7839ZM111.06 23.74C110.313 23.74 109.74 23.4933 109.34 23C108.94 22.4933 108.74 21.7133 108.74 20.66V15.78L109.12 16.08L107.82 15.8C107.726 15.7733 107.646 15.68 107.58 15.52C107.526 15.3467 107.5 15.1067 107.5 14.8C108.126 14.72 108.62 14.66 108.98 14.62C109.34 14.5667 109.633 14.54 109.86 14.54C110.34 14.54 110.693 14.64 110.92 14.84C111.16 15.04 111.28 15.3533 111.28 15.78V20.38C111.28 20.9533 111.393 21.38 111.62 21.66C111.846 21.9267 112.186 22.06 112.64 22.06C112.973 22.06 113.28 22 113.56 21.88C113.853 21.7467 114.106 21.5867 114.32 21.4C114.533 21.2 114.706 21.0133 114.84 20.84L114.58 21.34V15.78L114.96 16.08L113.64 15.8C113.546 15.7733 113.473 15.68 113.42 15.52C113.366 15.3467 113.34 15.1067 113.34 14.8C113.966 14.72 114.46 14.66 114.82 14.62C115.18 14.5667 115.466 14.54 115.68 14.54C116.173 14.54 116.533 14.64 116.76 14.84C116.986 15.04 117.1 15.3533 117.1 15.78V21.62C117.1 21.86 117.146 22.04 117.24 22.16C117.346 22.2667 117.493 22.32 117.68 22.32C117.813 22.32 117.953 22.2933 118.1 22.24C118.246 22.1867 118.373 22.12 118.48 22.04L118.7 22.82C118.406 23.1 118.046 23.3267 117.62 23.5C117.206 23.66 116.806 23.74 116.42 23.74C115.913 23.74 115.506 23.5933 115.2 23.3C114.893 22.9933 114.74 22.58 114.74 22.06H114.6C113.493 23.18 112.313 23.74 111.06 23.74ZM123.148 23.74C122.375 23.74 121.802 23.4933 121.428 23C121.068 22.5067 120.888 21.8067 120.888 20.9V12.98C121.075 12.8467 121.308 12.72 121.588 12.6C121.868 12.48 122.168 12.38 122.488 12.3C122.808 12.2067 123.115 12.1467 123.408 12.12V20.54C123.408 21.0467 123.488 21.4267 123.648 21.68C123.822 21.92 124.108 22.04 124.508 22.04C124.762 22.04 125.035 21.9933 125.328 21.9C125.622 21.7933 125.915 21.6333 126.208 21.42L126.588 22.14C126.415 22.3933 126.148 22.6467 125.788 22.9C125.428 23.14 125.022 23.34 124.568 23.5C124.115 23.66 123.642 23.74 123.148 23.74ZM125.568 16L119.588 15.84C119.588 15.5867 119.615 15.3467 119.668 15.12C119.735 14.88 119.822 14.72 119.928 14.64L126.028 14.34C126.068 14.42 126.095 14.5 126.108 14.58C126.122 14.66 126.128 14.74 126.128 14.82C126.128 15.1267 126.082 15.3867 125.988 15.6C125.895 15.8 125.755 15.9333 125.568 16ZM131.475 23.74C130.115 23.74 129.041 23.36 128.255 22.6C127.481 21.8267 127.095 20.78 127.095 19.46C127.095 18.4467 127.315 17.5533 127.755 16.78C128.208 15.9933 128.821 15.38 129.595 14.94C130.381 14.4867 131.288 14.26 132.315 14.26C133.221 14.26 134.008 14.44 134.675 14.8C135.341 15.1467 135.855 15.6467 136.215 16.3C136.588 16.9533 136.775 17.72 136.775 18.6C136.775 19.6 136.548 20.4867 136.095 21.26C135.655 22.0333 135.035 22.64 134.235 23.08C133.435 23.52 132.515 23.74 131.475 23.74ZM131.935 22.8C132.628 22.8 133.161 22.48 133.535 21.84C133.921 21.1867 134.115 20.2667 134.115 19.08C134.115 17.8533 133.921 16.9 133.535 16.22C133.161 15.54 132.628 15.2 131.935 15.2C131.241 15.2 130.708 15.5267 130.335 16.18C129.961 16.82 129.775 17.7467 129.775 18.96C129.775 20.2 129.955 21.1533 130.315 21.82C130.688 22.4733 131.228 22.8 131.935 22.8Z" fill="#0D3313"/>
</svg>
