<svg width="28" height="24" viewBox="0 0 28 24" fill="none" xmlns="http://www.w3.org/2000/svg">
<path d="M3.44694 19.3334V18.4667C3.44694 18.0134 3.66027 17.5868 3.99361 17.3867C6.24694 16.0401 8.82027 15.3334 11.4469 15.3334C11.4869 15.3334 11.5136 15.3334 11.5536 15.3467C11.6869 14.4134 11.9536 13.5201 12.3403 12.7067C12.0469 12.6801 11.7536 12.6667 11.4469 12.6667C8.22027 12.6667 5.20694 13.5601 2.63361 15.0934C1.46027 15.7867 0.780273 17.0934 0.780273 18.4667V22.0001H13.1269C12.5669 21.2001 12.1269 20.2934 11.8336 19.3334H3.44694Z" fill="white"/>
<path d="M11.4469 11.3334C14.3936 11.3334 16.7803 8.94675 16.7803 6.00008C16.7803 3.05341 14.3936 0.666748 11.4469 0.666748C8.50027 0.666748 6.11361 3.05341 6.11361 6.00008C6.11361 8.94675 8.50027 11.3334 11.4469 11.3334ZM11.4469 3.33341C12.9136 3.33341 14.1136 4.53341 14.1136 6.00008C14.1136 7.46675 12.9136 8.66675 11.4469 8.66675C9.98027 8.66675 8.78027 7.46675 8.78027 6.00008C8.78027 4.53341 9.98027 3.33341 11.4469 3.33341Z" fill="white"/>
<path d="M25.7803 16.6667C25.7803 16.3734 25.7403 16.1067 25.7003 15.8267L27.2203 14.4801L25.8869 12.1734L23.9536 12.8267C23.5269 12.4667 23.0469 12.1867 22.5136 11.9867L22.1136 10.0001H19.4469L19.0469 11.9867C18.5136 12.1867 18.0336 12.4667 17.6069 12.8267L15.6736 12.1734L14.3403 14.4801L15.8603 15.8267C15.8203 16.1067 15.7803 16.3734 15.7803 16.6667C15.7803 16.9601 15.8203 17.2267 15.8603 17.5067L14.3403 18.8534L15.6736 21.1601L17.6069 20.5067C18.0336 20.8667 18.5136 21.1467 19.0469 21.3467L19.4469 23.3334H22.1136L22.5136 21.3467C23.0469 21.1467 23.5269 20.8667 23.9536 20.5067L25.8869 21.1601L27.2203 18.8534L25.7003 17.5067C25.7403 17.2267 25.7803 16.9601 25.7803 16.6667ZM20.7803 19.3334C19.3136 19.3334 18.1136 18.1334 18.1136 16.6667C18.1136 15.2001 19.3136 14.0001 20.7803 14.0001C22.2469 14.0001 23.4469 15.2001 23.4469 16.6667C23.4469 18.1334 22.2469 19.3334 20.7803 19.3334Z" fill="white"/>
</svg>
