<svg width="27" height="28" viewBox="0 0 27 28" fill="none" xmlns="http://www.w3.org/2000/svg">
<path d="M16.5587 16.3067L18.4254 13.08C18.5454 12.88 18.492 12.6267 18.3187 12.48L16.3454 10.9334C16.3854 10.64 16.412 10.3334 16.412 10.0267C16.412 9.72003 16.3854 9.41336 16.3454 9.10669L18.3187 7.56003C18.492 7.41336 18.5454 7.16003 18.4254 6.96003L16.5587 3.73336C16.4387 3.53336 16.1987 3.45336 15.9854 3.53336L13.6654 4.46669C13.1854 4.09336 12.6654 3.78669 12.092 3.54669L11.7454 1.08003C11.7054 0.866693 11.5054 0.693359 11.2787 0.693359H7.54537C7.3187 0.693359 7.1187 0.866693 7.0787 1.09336L6.73204 3.56003C6.17204 3.80003 5.6387 4.10669 5.1587 4.48003L2.8387 3.54669C2.62537 3.46669 2.38537 3.54669 2.26537 3.74669L0.398702 6.97336C0.278702 7.17336 0.332036 7.42669 0.505369 7.57336L2.4787 9.12002C2.4387 9.41336 2.41204 9.72003 2.41204 10.0267C2.41204 10.3334 2.4387 10.64 2.4787 10.9467L0.505369 12.4934C0.332036 12.64 0.278702 12.8934 0.398702 13.0934L2.26537 16.32C2.38537 16.52 2.62537 16.6 2.8387 16.52L5.1587 15.5867C5.6387 15.96 6.1587 16.2667 6.73204 16.5067L7.0787 18.9734C7.1187 19.1867 7.3187 19.36 7.54537 19.36H11.2787C11.5054 19.36 11.7054 19.1867 11.7454 18.96L12.092 16.4934C12.652 16.2534 13.1854 15.9467 13.6654 15.5734L15.9854 16.5067C16.1987 16.5867 16.4387 16.5067 16.5587 16.3067ZM9.41204 12.6934C7.94537 12.6934 6.74537 11.4934 6.74537 10.0267C6.74537 8.56003 7.94537 7.36003 9.41204 7.36003C10.8787 7.36003 12.0787 8.56003 12.0787 10.0267C12.0787 11.4934 10.8787 12.6934 9.41204 12.6934Z" fill="white"/>
<path d="M26.892 22.92L25.612 21.9334C25.6387 21.7467 25.6654 21.5467 25.6654 21.3467C25.6654 21.1467 25.652 20.9467 25.612 20.76L26.8787 19.7734C26.9854 19.68 27.0254 19.52 26.9454 19.3867L25.7454 17.32C25.6787 17.1867 25.5187 17.1467 25.372 17.1867L23.892 17.7867C23.5854 17.5467 23.252 17.3467 22.8787 17.2L22.652 15.6267C22.6387 15.4667 22.5054 15.36 22.372 15.36H19.9854C19.8387 15.36 19.7054 15.4667 19.692 15.6134L19.4654 17.1867C19.1054 17.3467 18.7587 17.5334 18.452 17.7734L16.972 17.1734C16.8387 17.12 16.6787 17.1734 16.5987 17.3067L15.3987 19.3734C15.332 19.5067 15.3454 19.6667 15.4654 19.76L16.732 20.7467C16.7054 20.9334 16.692 21.1334 16.692 21.3334C16.692 21.5334 16.7054 21.7334 16.732 21.92L15.4654 22.9067C15.3587 23 15.3187 23.16 15.3987 23.2934L16.5987 25.36C16.6654 25.4934 16.8254 25.5334 16.972 25.4934L18.452 24.8934C18.7587 25.1334 19.092 25.3334 19.4654 25.48L19.692 27.0534C19.7187 27.2 19.8387 27.3067 19.9854 27.3067H22.372C22.5187 27.3067 22.652 27.2 22.6654 27.0534L22.892 25.48C23.252 25.32 23.5987 25.1334 23.892 24.8934L25.3854 25.4934C25.5187 25.5467 25.6787 25.4934 25.7587 25.36L26.9587 23.2934C27.0387 23.1734 26.9987 23.0134 26.892 22.92ZM21.172 23.1334C20.1854 23.1334 19.372 22.3334 19.372 21.3334C19.372 20.3334 20.172 19.5334 21.172 19.5334C22.172 19.5334 22.972 20.3334 22.972 21.3334C22.972 22.3334 22.1587 23.1334 21.172 23.1334Z" fill="white"/>
</svg>
